<?xml version="1.0" encoding="utf-8"?>
<!-- Generator: Adobe Illustrator 18.1.0, SVG Export Plug-In . SVG Version: 6.00 Build 0)  -->
<svg version="1.1" id="Calque_1" xmlns="http://www.w3.org/2000/svg" xmlns:xlink="http://www.w3.org/1999/xlink" x="0px" y="0px"
	 viewBox="0 0 376 70.5" enable-background="new 0 0 376 70.5" xml:space="preserve">
<g>
	<g>
		<path fill="#2D3D54" d="M304.9,17.1c-3.1,0-3.4,0-3.7,1.7l-1.1,5.6c-0.3,1.2-0.5,2.6-0.8,4c-0.3,1.4-0.5,2.9-0.8,4.3
			c-0.2,1.2-0.4,2.4-0.6,3.5h0c-0.4,2.3-0.9,2.3-1.1,0h0c-0.1-1.2-0.3-2.3-0.4-3.5c-0.2-1.5-0.4-2.9-0.6-4.3c-0.2-1.4-0.4-2.7-0.6-4
			l-1.1-6.2c-0.3-0.8-0.8-1.1-2.4-1.1H288h-0.1h-0.1h-0.1h-3.8c-1.6,0-2.1,0.2-2.4,1.1l-1.1,6.2c-0.2,1.2-0.4,2.6-0.6,4
			c-0.2,1.4-0.4,2.9-0.6,4.3c-0.2,1.2-0.3,2.3-0.4,3.5h0c-0.2,2.3-0.8,2.3-1.1,0h0c-0.2-1.2-0.4-2.3-0.6-3.5
			c-0.3-1.5-0.5-2.9-0.8-4.3c-0.3-1.4-0.5-2.7-0.8-4l-1.1-5.6c-0.3-1.7-0.6-1.4-3.7-1.4l-8.7,0.7l10,37.2c0.3,0.9,0.9,1.5,2.9,1.5
			h6.6c2.3,0,2.7-0.7,2.9-1.8l1.1-6c0.2-1.5,0.5-3,0.8-4.6c0.3-1.5,0.5-3,0.7-4.4c0.1-0.8,0.2-1.6,0.3-2.3c0.1-0.7,0.3-1.1,0.5-1.2
			c0.2,0.1,0.4,0.5,0.5,1.2c0.1,0.7,0.2,1.5,0.3,2.3c0.2,1.4,0.4,2.9,0.7,4.4c0.3,1.5,0.5,3.1,0.8,4.6l1.1,6
			c0.2,1.1,0.6,1.8,2.9,1.8h6.6c2.1,0,2.6-0.6,2.9-1.5l10.3-38.2H304.9z"/>
		<g>
			<path fill="#4C515D" d="M350.7,54.3l0-2.3C350.7,52.9,350.7,53.7,350.7,54.3z"/>
		</g>
		<g>
			<path fill="#2D3D54" d="M341,48.1l-4.9-3.9c-0.7-0.5-0.9-0.4-1.8,0.7c0,0,0,0,0,0c-0.8,0.9-1.5,1.6-2.1,2c-0.9,0.6-1.9,0.9-3,0.9
				c-1.3,0-2.3-0.5-3-1.6c-0.8-1.1-1.2-3.1-1.4-6.2H340c2.3,0,2.5-1.9,2.4-4.1c0-0.4,0-0.8,0-1.2c-0.3-5.5-1.4-9.8-3.5-12.7
				c-2.4-3.3-5.8-5-10.3-5c-4.6,0-8.2,1.7-10.6,5.1s-3.7,8.3-3.7,14.9c0,6.1,1.2,10.9,3.6,14.3c2.4,3.5,6,5.2,10.7,5.2
				c1.6,0,3-0.2,4.3-0.5c1.3-0.4,2.5-0.9,3.5-1.6c1-0.7,2-1.5,2.9-2.5c0.6-0.6,1.1-1.3,1.6-2C341.7,49.1,341.5,48.6,341,48.1z
				 M325.9,27c0.6-1,1.4-1.6,2.5-1.6c1.3,0,2.3,0.6,2.9,1.7c0.6,1.1,1,3,1.1,5.6h-7.7C324.9,30,325.3,28.1,325.9,27z"/>
		</g>
		<g>
			<path fill="#2D3D54" d="M373.2,21.9c-1.8-3.2-4.3-4.8-7.6-4.8c-1.6,0-2.9,0.3-4,0.9c-1.1,0.6-2.1,1.3-3.1,2.2l0-14.3
				c0-2.3-0.4-2.5-1.5-2.1l-8,3.1c-1.1,0.4-1.7,0.9-1.7,3.5l0,41.1l0,2.3c0.1,1.3,0.5,2.1,2.4,2.1h8.7v-2.1c0.9,0.8,1.9,1.4,3,2
				c1.1,0.6,2.4,0.9,3.8,0.9c3.4,0,6.1-1.6,7.9-4.8c1.8-3.2,2.7-8.3,2.7-15.1C376,30,375.1,25,373.2,21.9z M364.6,42.4
				c-0.1,1.3-0.3,2.4-0.6,3.1c-0.3,0.7-0.6,1.2-1,1.4c-0.4,0.2-0.8,0.3-1.3,0.3c-0.7,0-1.3-0.1-1.8-0.4c-0.5-0.3-1-0.6-1.4-1V27.8
				c0.5-0.4,1-0.7,1.4-0.9c0.5-0.2,1.1-0.4,1.7-0.4c0.5,0,1,0.1,1.4,0.4c0.4,0.2,0.7,0.7,1,1.5c0.3,0.7,0.5,1.8,0.6,3.2
				c0.1,1.4,0.2,3.2,0.2,5.5C364.8,39.2,364.8,41,364.6,42.4z"/>
		</g>
	</g>
	<path fill="#35BEEE" d="M272.7,17.1C272.7,17.1,272.7,17.1,272.7,17.1L272.7,17.1C272.7,17.1,272.7,17.1,272.7,17.1z"/>
	<g>
		<g>
			<path fill="#35BEEE" d="M53.8,16.2c-5.1,0-8.9,1.8-11.5,5.3c-2.6,3.5-3.9,8.7-3.9,15.4c0,6.8,1.3,11.9,4,15.3
				c2.7,3.4,6.4,5.2,11.2,5.2c5,0,8.9-1.7,11.5-5.2c2.6-3.5,4-8.6,4-15.5c0-6.8-1.3-11.9-4-15.3C62.4,17.9,58.7,16.2,53.8,16.2z
				 M56.6,45.2c-0.6,1.6-1.5,2.4-2.8,2.4c-1.4,0-2.4-0.8-2.9-2.4c-0.6-1.6-0.9-4.4-0.9-8.5c0-4,0.3-6.8,0.9-8.4
				c0.6-1.5,1.5-2.3,2.9-2.3c0.6,0,1.2,0.2,1.7,0.5c0.5,0.3,0.9,0.9,1.2,1.8c0.3,0.8,0.5,1.9,0.7,3.3c0.1,1.4,0.2,3.1,0.2,5.2
				C57.5,40.8,57.2,43.6,56.6,45.2z"/>
		</g>
		<g>
			<path fill="#35BEEE" d="M121.3,48l0-19.4c0-4.3-0.8-7.4-2.4-9.4c-1.6-2-4.1-3-7.5-3c-2.1,0-3.8,0.3-5.2,1c-1.4,0.7-2.7,1.6-4,2.7
				c-1-1.3-2.2-2.2-3.5-2.8c-1.3-0.6-3-0.9-5.2-0.9c-1.8,0-3.3,0.3-4.6,0.9c-1.3,0.6-2.3,1.3-3.2,2.2v-2.3h-10
				c-1.2,0.2-1.5,0.8-1.6,1.8l0,35.9c0.1,1.1,0.5,1.8,2.1,1.8h9.5l0-28.9c0.6-0.5,1.1-0.8,1.7-1.1c0.6-0.3,1.2-0.4,1.9-0.4
				c1.8,0,2.7,1.5,2.7,4.4v24.2c0.1,1,0.5,1.8,2.1,1.8h9.5l0-28.9c0.5-0.5,1.1-0.8,1.6-1.1c0.5-0.3,1.2-0.4,1.9-0.4
				c1.8,0,2.7,1.5,2.7,4.4v21.6v1.1c0,1.8,0.2,3.2,2.2,2.1l7.8-4.2C120.7,50.6,121.3,50.2,121.3,48z"/>
		</g>
		<g>
			<path fill="#35BEEE" d="M155.1,17.1h-10l0,28.9c-0.6,0.5-1.1,0.8-1.7,1.1c-0.6,0.3-1.2,0.4-2,0.4c-1.9,0-2.9-1.5-2.9-4.4l0-23
				l0-0.6c0-1.3-0.2-2.2-2.2-1.1l-8.3,4.5c-0.8,0.4-1.1,0.7-1.1,2.9v19.4c0,4.3,0.8,7.4,2.5,9.4c1.7,2,4.1,3,7.5,3
				c1.9,0,3.5-0.3,4.7-0.9s2.4-1.3,3.4-2.2v2.3h9.5c1.7,0,2-0.9,2.1-2V19C156.7,18,156.4,17.2,155.1,17.1z"/>
		</g>
		<g>
			<path fill="#35BEEE" d="M192.6,48l0-0.7V28.6c0-4.3-0.8-7.4-2.5-9.4c-1.7-2-4.2-3-7.5-3c-1.9,0-3.5,0.3-4.7,0.9
				c-1.2,0.6-2.3,1.3-3.4,2.2l0-2.3h-10c-1.4,0.2-1.6,1.1-1.6,2.2v1.1v32.7l0,1.1c0,1.3,0.3,2.3,2.1,2.3h9.5l0-28.9
				c0.6-0.5,1.1-0.8,1.7-1.1c0.6-0.3,1.2-0.4,2-0.4c1.9,0,2.9,1.5,2.9,4.4l0,22.2l0,1.6c0.1,1.1,0.5,2,2.3,1l7.7-4.2
				C192.4,50.4,192.5,49.1,192.6,48z"/>
		</g>
		<g>
			<path fill="#35BEEE" d="M210.3,48.6v-1.8l0-26.4h0c0-1.7,0.2-3.2-1.6-3.4h-8.3c-1.8,0.2-1.6,1.7-1.6,3.4h0v31.9v1.6
				c0.1,1.5,0.5,2.4,2.7,1.1l6.9-3.7C209.9,50.5,210.2,49.6,210.3,48.6z"/>
		</g>
		<g>
			<path fill="#35BEEE" d="M236.8,54.2l0.8-6.6c0.2-1.5-0.2-1.6-0.7-1.3c-0.2,0.1-0.3,0.2-0.5,0.3c-0.1,0-0.1,0.1-0.2,0.1v0
				c-0.2,0.1-0.4,0.2-0.5,0.2c-0.6,0.2-1.3,0.3-2.1,0.3c-0.9,0-1.5-0.3-2-0.8c-0.5-0.5-0.7-1.4-0.7-2.6l0-17.3h6.7v-8
				c-0.1-0.8-0.5-1.4-1.6-1.6h-5.1l0-13.1c0-1.8-0.6-2-1.4-1.7l-9.9,3.9v10.9h-2.8c-1.2,0.2-1.5,0.9-1.6,2v7.6h4.4l0,20.2
				c0,3.7,0.8,6.4,2.3,8.1c1.6,1.7,3.9,2.5,6.9,2.5c1.5,0,2.9-0.1,4.1-0.4c1-0.2,2-0.5,2.9-0.9C236.5,55.7,236.7,55.2,236.8,54.2z"
				/>
		</g>
		<g>
			<path fill="#35BEEE" d="M204.3,11.7c0.2,0.1,0.4,0.1,0.6-0.1l5.1-5.1c0.7-0.7,0.4-1,0-1.4L205,0.3h0c-0.4-0.4-0.7-0.3-0.9,0
				L199,5.3c-0.3,0.3-0.4,0.6,0.1,1.2L204.3,11.7z"/>
		</g>
		<path fill="#FFFFFF" d="M36.1,52.7"/>
		<path fill="#35BEEE" d="M37.1,55.4C37.1,55.4,37.1,55.4,37.1,55.4l-7.3-20.1c0,0,0-0.1,0-0.1l-0.5-1.4L25.4,23
			c0.6-0.8,2-2.9,2.4-3.6l8.9-15.1H25.3c-2.5,0-3.1,0.5-3.9,2l-2,3.7c-0.6,1-1.2,2.1-1.8,3.3c-0.5,0.9-0.9,1.8-1.4,2.7
			c-0.2,0.3-0.3,0.6-0.5,0.9c-0.4,0.8-0.8,1.6-1.2,2.4l0,0c-0.1,0.2-0.1,0.3-0.2,0.4c-0.1,0.3-0.3,0.5-0.4,0.8
			c0,0.1-0.1,0.2-0.1,0.3c-1.5,2.8-1.2-0.1-1.2-1.7h0c0-1,0-2,0.1-3.1c0-1.8,0-3.6,0-5.6V6.3c0-1.9-0.7-2-1.8-2h-0.5H0l0,53.1h11.4
			c1.3,0,1.4-0.8,1.4-1.6v-0.5V41.4c0-1.6,0.3-2.1,0.8-2.9l1.4-2c0,0,0,0,0,0c0.1-0.2,0.2-0.3,0.3-0.4c0.1-0.1,0.2-0.2,0.2-0.3
			c0.1-0.2,0.3-0.4,0.4-0.5l6.9,20.6c0.3,0.9,0.9,1.5,3.2,1.5h0.5h5.7l5.4,0L37.1,55.4z"/>
		<g>
			<path fill="#35BEEE" d="M273.6,17.3c-0.2-0.1-0.5-0.2-0.9-0.2h0h-8.5c-2.5,0-2.7,1.1-3.1,2.9l-1.4,6.9c-0.7,3.5-1.3,6.7-1.7,9.6
				l0,0c-0.4,3.1-1.2,5.9-2.1,0.7c0-0.1,0-0.2,0-0.3c0-0.1,0-0.2,0-0.3c0-0.1,0-0.1,0-0.1c-0.1-0.4-0.1-0.7-0.2-1
				c-0.4-2.6-0.9-5.4-1.5-8.4l-2-9.9h-12.1L251.2,56c0.4,1.3,0.4,2,0,3.2v0l-3.7,11.3h7.8c2.8,0,3.6-1,4.1-2.5
				c0.2-0.6,0.4-1.3,0.6-2.1c0,0,0,0,0,0l13.2-47.1c0.2-0.8,0.7-1.6,0.9-1.1C274.1,17.8,274,17.5,273.6,17.3z"/>
		</g>
	</g>
</g>
</svg>
